<svg width="27" height="27" viewBox="0 0 27 27" fill="none" xmlns="http://www.w3.org/2000/svg">
<path fill-rule="evenodd" clip-rule="evenodd" d="M11.5 17.5H14C14.2761 17.5 14.5 17.7239 14.5 18V26C14.5 26.2761 14.2761 26.5 14 26.5H2.5C1.39486 26.5 0.5 25.6051 0.5 24.5V2.5C0.5 1.39486 1.39486 0.5 2.5 0.5H24.5C25.6051 0.5 26.5 1.39486 26.5 2.5V24.5C26.5 25.6051 25.6051 26.5 24.5 26.5H18C17.7239 26.5 17.5 26.2761 17.5 26V18C17.5 17.7239 17.7239 17.5 18 17.5H21.0586L21.0039 17.938L21.5 17.5H21.0586L21.4336 14.5H18C17.7239 14.5 17.5 14.2761 17.5 14V12C17.5 10.6199 18.6199 9.5 20 9.5H21.5V6.5H19C16.5151 6.5 14.5 8.51514 14.5 11V14C14.5 14.2761 14.2761 14.5 14 14.5H11.5V17.5ZM24.5 25.5H18.5V18.5H21.5C21.7522 18.5 21.9649 18.3122 21.9961 18.062L22.4961 14.062C22.5334 13.7636 22.3007 13.5 22 13.5H18.5V12C18.5 11.1721 19.1721 10.5 20 10.5H22C22.2761 10.5 22.5 10.2761 22.5 10V6C22.5 5.72386 22.2761 5.5 22 5.5H19C15.9629 5.5 13.5 7.96286 13.5 11V13.5H11C10.7239 13.5 10.5 13.7239 10.5 14V18C10.5 18.2761 10.7239 18.5 11 18.5H13.5V25.5H2.5C1.94714 25.5 1.5 25.0529 1.5 24.5V2.5C1.5 1.94714 1.94714 1.5 2.5 1.5H24.5C25.0529 1.5 25.5 1.94714 25.5 2.5V24.5C25.5 25.0529 25.0529 25.5 24.5 25.5Z" fill="#467CB5"/>
</svg>
