<svg width="26" height="26" viewBox="0 0 26 26" fill="none" xmlns="http://www.w3.org/2000/svg">
<path fill-rule="evenodd" clip-rule="evenodd" d="M26 2C26 0.894858 25.1051 0 24 0H2C0.894858 0 0 0.894858 0 2V24C0 25.1051 0.894858 26 2 26H24C25.1051 26 26 25.1051 26 24V2ZM2 1H24C24.5529 1 25 1.44714 25 2V24C25 24.5529 24.5529 25 24 25H2C1.44714 25 1 24.5529 1 24V2C1 1.44714 1.44714 1 2 1ZM9 6.5C9 7.88014 7.88014 9 6.5 9C5.11986 9 4 7.88014 4 6.5C4 5.11986 5.11986 4 6.5 4C7.88014 4 9 5.11986 9 6.5ZM8 6.5C8 5.67214 7.32786 5 6.5 5C5.67214 5 5 5.67214 5 6.5C5 7.32786 5.67214 8 6.5 8C7.32786 8 8 7.32786 8 6.5ZM4.5 23C4.22386 23 4 22.7761 4 22.5V10.5C4 10.2239 4.22386 10 4.5 10H8.5C8.77614 10 9 10.2239 9 10.5V22.5C9 22.7761 8.77614 23 8.5 23H4.5ZM5 11V22H8V11H5ZM18 10C20.7611 10 23 12.2389 23 15V22.5C23 22.7761 22.7761 23 22.5 23H18.5C18.2239 23 18 22.7761 18 22.5V15.5C18 14.6721 17.3279 14 16.5 14C15.6721 14 15 14.6721 15 15.5V22.5C15 22.7761 14.7761 23 14.5 23H10.5C10.2239 23 10 22.7761 10 22.5V10.5C10 10.2239 10.2239 10 10.5 10H14.5C14.7761 10 15 10.2239 15 10.5V11.0193C15.8517 10.368 16.8946 10 18 10ZM22 22V15C22 12.7911 20.2089 11 18 11C16.7792 11 15.6532 11.5631 14.8904 12.5164C14.5951 12.8854 14 12.6766 14 12.204V11H11V22H14V15.5C14 14.1199 15.1199 13 16.5 13C17.8801 13 19 14.1199 19 15.5V22H22Z" fill="#467CB5"/>
</svg>
