<svg width="31" height="25" viewBox="0 0 31 25" fill="none" xmlns="http://www.w3.org/2000/svg">
<path fill-rule="evenodd" clip-rule="evenodd" d="M3.52673 1.89283C3.30815 1.62644 2.89194 1.65583 2.71295 1.95029C1.23629 4.37955 1.76644 7.28237 3.22954 9.14725C2.88917 8.96129 2.53711 8.72514 2.19026 8.44953C1.86261 8.18919 1.3792 8.42252 1.3792 8.841C1.3792 11.3719 3.05789 13.5822 4.87859 14.6868C4.5913 14.63 4.27063 14.5482 3.91415 14.4419C3.50131 14.3187 3.13637 14.7405 3.31759 15.1313C4.35771 17.3746 6.45848 19.0098 8.76349 19.504C6.77436 20.7412 3.93249 21.3773 1.30502 21.0821C0.760425 21.021 0.528325 21.7541 1.0089 22.0175C4.15199 23.74 7.34866 24.5034 10.7057 24.5C20.5246 24.4904 28.5596 15.5051 27.7756 6.94244C28.7819 6.23847 29.9836 5.07772 30.6689 4.01983C30.946 3.59198 30.4802 3.07233 30.0247 3.30125C29.7653 3.4316 29.2501 3.59463 28.6958 3.73453C29.2749 3.06945 29.7597 2.26452 29.9517 1.55815C30.0736 1.10957 29.5709 0.751914 29.1871 1.01416C28.6854 1.35701 26.8733 2.06198 25.8714 2.26687C24.4731 1.0421 23.0959 0.5 21.4232 0.5C20.1439 0.5 19.004 0.857741 17.6925 1.60567C15.5899 2.80326 14.8225 5.49071 15.1353 7.71989C10.2777 7.30524 6.13012 5.06557 3.52673 1.89283ZM5.12769 10.5698C5.58314 10.4812 5.68276 9.87391 5.27949 9.64443C3.3798 8.56341 2.1635 5.61766 3.24456 3.09623C6.15868 6.312 10.6017 8.49808 15.7234 8.76234C16.0591 8.77965 16.3159 8.46749 16.2342 8.14147C15.7468 6.19644 16.3406 3.52649 18.1877 2.47447C19.3592 1.80637 20.3354 1.5 21.4232 1.5C22.9109 1.5 24.0967 1.99197 25.3802 3.16945C25.4902 3.27035 25.6395 3.31683 25.7873 3.2962C26.4372 3.2055 27.4979 2.86226 28.3857 2.50352C27.8937 3.2215 27.2218 3.87644 26.7082 4.07591C26.1918 4.27647 26.3363 5.04328 26.8904 5.042C27.344 5.04095 28.0876 4.91225 28.8004 4.73884C28.2091 5.35173 27.5373 5.915 26.9773 6.27411C26.8165 6.37724 26.7285 6.563 26.7506 6.75277C27.6883 14.8141 20.0406 23.4909 10.7047 23.5C8.23884 23.5025 5.87002 23.0716 3.54198 22.1208C6.17159 21.9369 8.73677 20.9932 10.4044 19.5343C10.7479 19.2339 10.5424 18.6681 10.0862 18.6581C8.03786 18.6131 6.00537 17.4611 4.78425 15.6891C5.86433 15.8921 6.64332 15.7994 7.24112 15.3069C7.58292 15.0253 7.41698 14.4712 6.97668 14.4239C5.32745 14.2465 3.02993 12.3148 2.49407 9.88088C3.41984 10.4403 4.34049 10.723 5.12769 10.5698Z" fill="#467CB5"/>
</svg>
