<svg width="107" height="20" viewBox="0 0 107 20" fill="none" xmlns="http://www.w3.org/2000/svg">
<path fill-rule="evenodd" clip-rule="evenodd" d="M4.97313 19.4581H0V0H7.91642C10.0647 0 11.7097 0.567736 12.8515 1.70323C13.9933 2.83872 14.5642 4.4387 14.5642 6.50323C14.5642 8.56775 13.9933 10.1677 12.8515 11.3032C11.7097 12.4387 10.0647 13.0065 7.91642 13.0065H4.97313V19.4581ZM4.97313 8.92903H6.62239C8.44926 8.92903 9.36269 8.12044 9.36269 6.50323C9.36269 4.88601 8.44926 4.07742 6.62239 4.07742H4.97313V8.92903ZM24.4343 5.75484L26.6672 12.2323H22.2015L24.4343 5.75484ZM27.9866 16.0774H20.8821L19.7403 19.4581H14.4373L21.7194 0H27.1493L34.4313 19.4581H29.1284L27.9866 16.0774ZM46.1537 13.4968V0H41.1806V13.4194C41.1806 14.9161 40.7154 15.6645 39.7851 15.6645C39.3622 15.6645 39.007 15.4925 38.7194 15.1484C38.4318 14.8043 38.2458 14.3398 38.1612 13.7548L34.9134 17.1355C36.199 19.0452 37.8652 20 39.9119 20C40.5886 20 41.2356 19.9097 41.853 19.729C42.4704 19.5484 43.0328 19.2989 43.5403 18.9806C44.0478 18.6624 44.4918 18.2753 44.8724 17.8194C45.253 17.3634 45.5532 16.8602 45.7731 16.3097C45.9085 15.9656 46.0057 15.5527 46.0649 15.071C46.1241 14.5892 46.1537 14.0645 46.1537 13.4968ZM60.2358 12.2323L58.003 5.75484L55.7701 12.2323H60.2358ZM54.4507 16.0774H61.5552L62.697 19.4581H68L60.7179 0H55.2881L48.006 19.4581H53.309L54.4507 16.0774Z" fill="#1D1D1D"/>
<path fill-rule="evenodd" clip-rule="evenodd" d="M74.9876 8.02581L81.0695 0H87.2276L79.7713 9.02843C79.4299 9.12256 79.0919 9.23401 78.7585 9.36279L78.4509 9.48165C76.4123 10.2692 74.1561 10.2503 72.1306 9.42869C71.4382 9.14782 70.7242 8.94235 70 8.81238V0H74.9876V8.02581ZM70 11.0048V19.4581H74.9876V12.203C73.7481 12.16 72.5146 11.9006 71.343 11.4254C70.9047 11.2476 70.4555 11.1073 70 11.0048ZM75.8924 12.196L81.4766 19.4581H87.9402L81.0238 10.9426C80.5119 11.0388 80.0063 11.182 79.5135 11.3724L79.2058 11.4913C78.1356 11.9048 77.0172 12.1396 75.8924 12.196ZM90.3027 12.1785C90.4286 14.7479 91.1085 16.6583 92.3425 17.9097C93.7167 19.3032 95.8203 20 98.6534 20C101.486 20 103.586 19.3032 104.952 17.9097C106.233 16.602 106.913 14.5749 106.992 11.8282C105.36 12.2766 103.648 12.3297 101.996 11.9864C101.99 12.098 101.982 12.21 101.974 12.3226C101.932 12.9161 101.8 13.4538 101.58 13.9355C101.359 14.4172 101.024 14.8086 100.575 15.1097C100.125 15.4108 99.4846 15.5613 98.6534 15.5613C97.8221 15.5613 97.1774 15.4108 96.7194 15.1097C96.2613 14.8086 95.9263 14.4172 95.7142 13.9355C95.5022 13.4538 95.3749 12.9161 95.3325 12.3226C95.2994 11.8587 95.2792 11.4026 95.2719 10.9545C94.7346 11.0596 94.2048 11.2165 93.6899 11.4254C92.5996 11.8677 91.4549 12.1187 90.3027 12.1785ZM102.038 9.79056C103.673 10.2095 105.398 10.1377 107 9.57707V0H102.038V9.79056ZM95.2689 8.77275C94.4639 8.89867 93.6698 9.11735 92.9023 9.42869C92.0581 9.77115 91.173 9.9702 90.2813 10.0258V0H95.2689V8.77275Z" fill="#467CB5"/>
</svg>
